0
SECTION
2
HEADER
9
$ACADVER
1
AC1015
9
$INSUNITS
70
4
0
ENDSEC
0
SECTION
2
BLOCKS
0
BLOCK
8
0
2
2774928
70
0
10
0
20
0
30
0
3
2774928
0
LWPOLYLINE
8
203_Chassis_left_side_view
90
4
70
1
10
0
20
0
10
2600
20
0
10
2600
20
640
10
0
20
640
0
LWPOLYLINE
8
205_Chassis_top_view
90
4
70
1
10
0
20
-900
10
2600
20
-900
10
2600
20
-200
10
0
20
-200
0
TEXT
8
203_Chassis_left_side_view
10
400
20
300
40
40
1
FUEL TANK
0
ENDBLK
0
ENDSEC
0
SECTION
2
ENTITIES
0
TEXT
8
202_Info
10
0
20
4000
40
20
1
SCANIA ICD
0
TEXT
8
201_Dimensions
10
100
20
2500
40
12
1
(L011=4950)
0
TEXT
8
201_Dimensions
10
100
20
2400
40
12
1
(L012.2=1350)
0
TEXT
8
201_Dimensions
10
100
20
2300
40
12
1
(H032.1=270)
0
TEXT
8
201_Dimensions
10
100
20
2200
40
12
1
(W036=760)
0
TEXT
8
201_Dimensions
10
100
20
2100
40
12
1
(W032.1=90)
0
TEXT
8
201_Dimensions
10
100
20
2000
40
12
1
(L022.1=1072)
0
TEXT
8
201_Dimensions
10
100
20
1900
40
12
1
(L022.2=1076)
0
TEXT
8
201_Dimensions
10
100
20
1800
40
12
1
(L022.3=1072)
0
DIMENSION
8
201_Dimensions
10
800
20
2600
1
(L016=1450)
42
1450
0
LINE
8
203_Chassis_left_side_view
10
500
20
800
11
10200
21
800
0
LINE
8
203_Chassis_left_side_view
10
500
20
1070
11
10200
21
1070
0
LINE
8
205_Chassis_top_view
10
500
20
-380
11
10200
21
-380
0
LINE
8
205_Chassis_top_view
10
500
20
380
11
10200
21
380
0
CIRCLE
8
203_Chassis_left_side_view
10
1950
20
536
40
270
0
CIRCLE
8
203_Chassis_left_side_view
10
6900
20
538
40
270
0
CIRCLE
8
203_Chassis_left_side_view
10
8250
20
536
40
270
0
ARC
8
203_Chassis_left_side_view
10
1950
20
536
40
536
50
200
51
340
0
ARC
8
203_Chassis_left_side_view
10
6900
20
538
40
538
50
200
51
340
0
ARC
8
203_Chassis_left_side_view
10
8250
20
536
40
536
50
200
51
340
0
CIRCLE
8
211_Frame_holes_left_side_view
10
2200
20
900
40
7.4
0
INSERT
8
0
2
2774928
10
5600
20
820
41
1
42
1
50
0
0
HATCH
8
203_Chassis_left_side_view
70
1
10
5600
20
820
10
8200
20
820
10
8200
20
1460
10
5600
20
1460
0
ENDSEC
0
EOF
